<?xml version="1.0" encoding="UTF-8"?> <svg xmlns="http://www.w3.org/2000/svg" width="65" height="65" viewBox="0 0 65 65" fill="none"><path d="M20.582 44.787c-5.118-5.119-3.394-13.075 4.674-21.142 8.846-8.847 22.2-15.19 26.929-10.46 4.729 4.729-1.67 18.138-10.46 26.928-8.123 8.123-15.968 9.848-21.143 4.674z" fill="#FFF4F2"></path><path d="M20.582 44.787c-5.118-5.119-3.394-13.075 4.674-21.142 8.846-8.847 22.2-15.19 26.929-10.46 4.729 4.729-1.67 18.138-10.46 26.928-8.123 8.123-15.968 9.848-21.143 4.674zM51.35 14.019c-3.728-3.728-16.19 1.502-25.204 10.516-7.567 7.567-9.347 14.8-4.73 19.417 4.619 4.618 11.852 2.838 19.418-4.729 9.07-8.957 14.244-21.476 10.516-25.204z" fill="#333"></path><path d="M1.943 40.725l-.834-.834 18.305-18.305c8.568-8.568 16.413-6.287 16.747-6.176l-.334 1.113.167-.612-.167.612c-.056-.056-7.511-2.17-15.523 5.842l-18.36 18.36z" fill="#333"></path><path d="M25.256 64.038l-.835-.835 18.305-18.305c8.067-8.067 5.897-15.467 5.842-15.523l1.113-.334c.11.334 2.392 8.18-6.176 16.747l-18.25 18.25z" fill="#333"></path></svg> 